<mxfile host="app.diagrams.net" modified="2021-01-11T01:24:49.527Z" agent="5.0 (Windows NT 6.1; Win64; x64) AppleWebKit/537.36 (KHTML, like Gecko) Chrome/87.0.4280.88 Safari/537.36" etag="JkoVxzrhNjyiHhgrPkcx" version="14.1.9" type="github">
  <diagram id="ycBhdELRbPIAqRDgfDVs" name="Page-1">
    <mxGraphModel dx="1422" dy="762" grid="1" gridSize="10" guides="1" tooltips="1" connect="1" arrows="1" fold="1" page="1" pageScale="1" pageWidth="827" pageHeight="1169" math="0" shadow="0">
      <root>
        <mxCell id="0" />
        <mxCell id="1" parent="0" />
        <mxCell id="iUOwyCwMXKLjFDbmIBd9-6" value="" style="rounded=1;whiteSpace=wrap;html=1;fillColor=#3399FF;" vertex="1" parent="1">
          <mxGeometry x="220" y="100" width="190" height="420" as="geometry" />
        </mxCell>
        <mxCell id="iUOwyCwMXKLjFDbmIBd9-8" style="rounded=0;orthogonalLoop=1;jettySize=auto;html=1;exitX=1;exitY=0.3333333333333333;exitDx=0;exitDy=0;exitPerimeter=0;entryX=0;entryY=0.5;entryDx=0;entryDy=0;" edge="1" parent="1" source="iUOwyCwMXKLjFDbmIBd9-1" target="iUOwyCwMXKLjFDbmIBd9-5">
          <mxGeometry relative="1" as="geometry" />
        </mxCell>
        <mxCell id="iUOwyCwMXKLjFDbmIBd9-10" style="edgeStyle=none;rounded=0;orthogonalLoop=1;jettySize=auto;html=1;exitX=1;exitY=0.3333333333333333;exitDx=0;exitDy=0;exitPerimeter=0;entryX=0;entryY=0.5;entryDx=0;entryDy=0;" edge="1" parent="1" source="iUOwyCwMXKLjFDbmIBd9-1" target="iUOwyCwMXKLjFDbmIBd9-3">
          <mxGeometry relative="1" as="geometry" />
        </mxCell>
        <mxCell id="iUOwyCwMXKLjFDbmIBd9-12" style="edgeStyle=none;rounded=0;orthogonalLoop=1;jettySize=auto;html=1;exitX=1;exitY=0.3333333333333333;exitDx=0;exitDy=0;exitPerimeter=0;entryX=0.025;entryY=0.625;entryDx=0;entryDy=0;entryPerimeter=0;" edge="1" parent="1" source="iUOwyCwMXKLjFDbmIBd9-1" target="iUOwyCwMXKLjFDbmIBd9-4">
          <mxGeometry relative="1" as="geometry" />
        </mxCell>
        <mxCell id="iUOwyCwMXKLjFDbmIBd9-1" value="用户" style="shape=umlActor;verticalLabelPosition=bottom;verticalAlign=top;html=1;outlineConnect=0;" vertex="1" parent="1">
          <mxGeometry x="100" y="290" width="30" height="60" as="geometry" />
        </mxCell>
        <mxCell id="iUOwyCwMXKLjFDbmIBd9-3" value="调整设备状态" style="ellipse;whiteSpace=wrap;html=1;" vertex="1" parent="1">
          <mxGeometry x="260" y="280" width="120" height="80" as="geometry" />
        </mxCell>
        <mxCell id="iUOwyCwMXKLjFDbmIBd9-4" value="查看设备状态列表" style="ellipse;whiteSpace=wrap;html=1;" vertex="1" parent="1">
          <mxGeometry x="260" y="390" width="120" height="80" as="geometry" />
        </mxCell>
        <mxCell id="iUOwyCwMXKLjFDbmIBd9-5" value="制定更改设备&lt;br&gt;状态计划" style="ellipse;whiteSpace=wrap;html=1;" vertex="1" parent="1">
          <mxGeometry x="260" y="170" width="120" height="80" as="geometry" />
        </mxCell>
        <mxCell id="iUOwyCwMXKLjFDbmIBd9-7" value="" style="endArrow=classic;html=1;" edge="1" parent="1">
          <mxGeometry width="50" height="50" relative="1" as="geometry">
            <mxPoint x="390" y="410" as="sourcePoint" />
            <mxPoint x="440" y="360" as="targetPoint" />
          </mxGeometry>
        </mxCell>
        <mxCell id="iUOwyCwMXKLjFDbmIBd9-9" value="" style="endArrow=classic;html=1;" edge="1" parent="1">
          <mxGeometry width="50" height="50" relative="1" as="geometry">
            <mxPoint x="390" y="410" as="sourcePoint" />
            <mxPoint x="440" y="360" as="targetPoint" />
          </mxGeometry>
        </mxCell>
        <mxCell id="iUOwyCwMXKLjFDbmIBd9-11" value="" style="endArrow=classic;html=1;" edge="1" parent="1">
          <mxGeometry width="50" height="50" relative="1" as="geometry">
            <mxPoint x="390" y="410" as="sourcePoint" />
            <mxPoint x="440" y="360" as="targetPoint" />
          </mxGeometry>
        </mxCell>
      </root>
    </mxGraphModel>
  </diagram>
</mxfile>
